<?xml version="1.0" encoding="iso-8859-1"?>
<!DOCTYPE svg PUBLIC "-//W3C//DTD SVG 1.1//EN" "http://www.w3.org/Graphics/SVG/1.1/DTD/svg11.dtd">
<svg class="logo" xmlns="http://www.w3.org/2000/svg" xmlns:xlink="http://www.w3.org/1999/xlink" >
  <defs>
  <linearGradient
          id="primary-secondary-gradient"
          gradientUnits="userSpaceOnUse"
        >
          <stop offset="0%" stop-color="#c7f3fa" />
          <stop offset="100%" stop-color="#facef9" />
        </linearGradient>
  </defs>
  <style type="text/css">
		.logo {
		  height: 100%;
		  width: auto;
		}
		.logo__star, .logo__diamond-part, .logo__line {
		  fill: none;
		  stroke: url(#primary-secondary-gradient);
		}
		.logo__line, .logo__diamond-part {
		  stroke-width: 2;
		}
		.logo__diamond-part {
		  stroke-linecap: round;
		  stroke-linejoin: round;
		  stroke-miterlimit: 10;
		}
		.logo__star {
		  translate: 0 -2.5px;
		}
    </style>
  <g>
    <polygon
      class="logo__diamond-part"
      points="18,23 12,32 32,52 52,32 46,23"
    />

    <line class="logo__line" x1="12" x2="52" y1="32" y2="32" />

    <polyline class="logo__diamond-part" points="28,23 23,32 32,52" />

    <polyline class="logo__diamond-part" points="36,23 41,32 32,52" />
  </g>

  <path
    class="logo__star"
    d="M32,10L32,10c0.7,1.3,1.7,2.3,3,3l0,0l0,0c-1.3,0.7-2.3,1.7-3,3v0l0,0c-0.7-1.3-1.7-2.3-3-3l0,0l0,0  C30.3,12.3,31.3,11.3,32,10L32,10z"
  />

  <path
    class="logo__star"
    d="M49,16L49,16c0.7,1.3,1.7,2.3,3,3l0,0l0,0c-1.3,0.7-2.3,1.7-3,3v0v0c-0.7-1.3-1.7-2.3-3-3l0,0l0,0  C47.3,18.3,48.3,17.3,49,16L49,16z"
  />

  <path
    class="logo__star"
    d="M15,16L15,16c0.7,1.3,1.7,2.3,3,3l0,0l0,0c-1.3,0.7-2.3,1.7-3,3l0,0l0,0c-0.7-1.3-1.7-2.3-3-3l0,0l0,0  C13.3,18.3,14.3,17.3,15,16L15,16z"
  />
</svg>
