<?xml version="1.0" standalone="no"?>
<!DOCTYPE svg PUBLIC "-//W3C//DTD SVG 20010904//EN"
 "http://www.w3.org/TR/2001/REC-SVG-20010904/DTD/svg10.dtd">
<svg version="1.0" xmlns="http://www.w3.org/2000/svg" fill="black"
 width="320.000000pt" height="320.000000pt" viewBox="0 0 320.000000 320.000000"
 preserveAspectRatio="xMidYMid meet">

<g transform="translate(0.000000,320.000000) scale(0.100000,-0.100000)">
<path d="M601 3112 c-6 -21 -13 -52 -17 -69 -4 -19 -15 -35 -31 -42 -22 -10
-32 -7 -83 24 -32 19 -62 35 -66 35 -12 0 -264 -252 -264 -264 0 -5 16 -34 35
-66 31 -51 34 -61 24 -83 -7 -16 -23 -27 -42 -31 -17 -4 -48 -11 -69 -17 l-38
-10 0 -189 0 -189 38 -10 c21 -6 52 -13 69 -17 19 -4 35 -15 42 -31 10 -21 6
-33 -24 -84 -19 -33 -35 -63 -35 -67 0 -4 47 -54 105 -112 l105 -105 0 -590
c1 -636 0 -629 54 -700 46 -60 107 -88 201 -93 l82 -4 223 -174 224 -175 856
3 855 3 67 32 c93 44 151 100 196 191 35 72 37 81 37 171 0 83 -4 104 -27 154
-15 32 -36 71 -48 87 -20 28 -20 40 -20 737 l0 708 -23 39 c-41 72 -59 76
-334 76 l-241 0 -4 168 c-3 156 -5 171 -29 223 -37 79 -90 133 -167 171 l-67
33 -385 3 -386 3 -104 104 c-58 58 -108 105 -112 105 -4 0 -34 -16 -67 -35
-81 -48 -100 -40 -125 56 l-18 69 -188 0 -189 0 -10 -38z m327 -123 l13 -56
68 -26 68 -27 51 28 52 27 41 -41 42 -42 -54 -16 c-30 -8 -75 -28 -100 -44
-45 -29 -46 -29 -70 -11 -74 54 -215 80 -321 60 -174 -32 -316 -171 -358 -350
-15 -64 -9 -168 14 -233 16 -46 16 -49 -4 -87 -16 -32 -20 -59 -20 -138 l0
-97 -44 43 -44 43 29 50 29 49 -26 69 -27 69 -56 13 -56 14 0 114 0 114 56 14
56 13 27 69 26 68 -29 49 -29 48 81 82 80 81 48 -30 48 -29 70 27 70 27 12 51
c6 28 14 55 16 59 3 4 55 6 116 5 l111 -3 14 -56z m15 -272 c31 -14 57 -28 57
-30 0 -3 -9 -26 -21 -52 -19 -43 -22 -46 -38 -31 -32 29 -109 49 -168 43 -171
-18 -272 -202 -196 -356 l20 -41 -58 0 -58 0 -17 57 c-31 108 -1 239 76 326
97 111 268 146 403 84z m507 -17 l0 -50 -92 0 c-78 0 -99 -4 -132 -23 -65 -37
-76 -70 -76 -234 l0 -143 -51 0 -50 0 3 158 c3 145 5 161 28 206 29 56 80 101
136 121 23 8 80 14 137 15 l97 0 0 -50z m200 0 l0 -50 -50 0 -50 0 0 50 0 50
50 0 50 0 0 -50z m200 0 l0 -50 -50 0 -50 0 0 50 0 50 50 0 50 0 0 -50z m335
33 c63 -21 127 -85 148 -148 13 -36 17 -85 17 -192 l0 -143 -50 0 -50 0 0 140
c0 121 -3 146 -20 180 -31 60 -78 80 -190 80 l-90 0 0 50 0 50 93 0 c61 0 110
-6 142 -17z m-1315 -203 c60 -31 80 -78 80 -190 l0 -90 -93 0 c-110 0 -150 17
-185 76 -17 30 -22 50 -19 85 9 111 117 170 217 119z m1262 3 c16 -14 18 -33
18 -150 l0 -133 -450 0 -450 0 0 134 c0 109 3 138 16 150 13 14 67 16 431 16
373 0 418 -2 435 -17z m800 -400 c16 -15 18 -36 18 -242 0 -215 -1 -228 -23
-265 -43 -76 -42 -76 -484 -76 l-392 0 -3 153 c-3 138 -5 155 -25 183 -43 60
-66 64 -325 64 -223 0 -235 -1 -272 -23 -65 -37 -76 -70 -76 -234 l0 -143
-393 0 c-443 0 -441 0 -484 76 -22 37 -23 50 -23 266 0 193 2 229 16 242 14
14 139 16 1231 16 1118 0 1218 -1 1235 -17z m-998 -299 c12 -12 16 -36 16
-100 l0 -84 -250 0 -250 0 0 84 c0 64 4 88 16 100 23 24 445 24 468 0z m-384
-384 l0 -100 150 0 150 0 0 100 0 100 50 0 50 0 0 -132 c0 -108 -3 -135 -17
-150 -15 -16 -36 -18 -231 -18 -186 0 -218 2 -234 17 -16 14 -18 33 -18 150
l0 133 50 0 50 0 0 -100z m200 50 l0 -50 -50 0 -50 0 0 50 0 50 50 0 50 0 0
-50z m-807 -48 l407 -3 0 -92 c0 -77 4 -98 23 -131 41 -72 60 -76 327 -76 267
0 286 4 327 76 19 33 23 54 23 131 l0 92 408 3 c392 3 409 4 450 24 l42 21 0
-348 c0 -192 -2 -349 -4 -349 -2 0 -25 10 -52 23 l-49 22 -856 3 -856 3 -224
-176 -224 -175 -60 0 c-73 0 -129 29 -156 80 -18 32 -19 65 -19 476 l0 441 43
-21 c40 -20 57 -21 450 -24z m1507 -827 l0 -125 -525 0 -525 0 0 -50 0 -50
525 0 525 0 0 -125 0 -125 -625 0 -625 0 0 125 0 125 50 0 50 0 0 50 0 50 -50
0 -50 0 0 125 0 125 625 0 625 0 0 -125z m200 -175 l0 -300 -50 0 -50 0 0 300
0 300 50 0 50 0 0 -300z m237 264 c102 -49 158 -143 158 -264 0 -85 -21 -142
-74 -203 -37 -42 -117 -83 -178 -93 l-43 -7 0 303 0 303 43 -7 c23 -4 65 -18
94 -32z m-1787 -264 c0 -132 -3 -240 -6 -240 -12 0 -304 235 -301 243 3 10
288 235 300 236 4 1 7 -107 7 -239z"/>
</g>
</svg>
